<mxfile host="Electron" agent="Mozilla/5.0 (Windows NT 10.0; Win64; x64) AppleWebKit/537.36 (KHTML, like Gecko) draw.io/26.0.16 Chrome/132.0.6834.196 Electron/34.2.0 Safari/537.36" version="26.0.16">
  <diagram id="C5RBs43oDa-KdzZeNtuy" name="Page-1">
    <mxGraphModel dx="1820" dy="1865" grid="1" gridSize="10" guides="1" tooltips="1" connect="1" arrows="1" fold="1" page="1" pageScale="1" pageWidth="827" pageHeight="1169" math="0" shadow="0">
      <root>
        <mxCell id="WIyWlLk6GJQsqaUBKTNV-0" />
        <mxCell id="WIyWlLk6GJQsqaUBKTNV-1" parent="WIyWlLk6GJQsqaUBKTNV-0" />
        <mxCell id="nSsZOLsbIUvvTq5Wi3pr-3" value="" style="edgeStyle=orthogonalEdgeStyle;rounded=0;orthogonalLoop=1;jettySize=auto;html=1;" edge="1" parent="WIyWlLk6GJQsqaUBKTNV-1" source="WIyWlLk6GJQsqaUBKTNV-3" target="nSsZOLsbIUvvTq5Wi3pr-2">
          <mxGeometry relative="1" as="geometry" />
        </mxCell>
        <mxCell id="nSsZOLsbIUvvTq5Wi3pr-5" value="" style="edgeStyle=orthogonalEdgeStyle;rounded=0;orthogonalLoop=1;jettySize=auto;html=1;" edge="1" parent="WIyWlLk6GJQsqaUBKTNV-1" source="WIyWlLk6GJQsqaUBKTNV-3" target="nSsZOLsbIUvvTq5Wi3pr-4">
          <mxGeometry relative="1" as="geometry" />
        </mxCell>
        <mxCell id="WIyWlLk6GJQsqaUBKTNV-3" value="Go to product list" style="rounded=1;whiteSpace=wrap;html=1;fontSize=12;glass=0;strokeWidth=1;shadow=0;" parent="WIyWlLk6GJQsqaUBKTNV-1" vertex="1">
          <mxGeometry x="354" y="70" width="120" height="40" as="geometry" />
        </mxCell>
        <mxCell id="nSsZOLsbIUvvTq5Wi3pr-1" style="edgeStyle=orthogonalEdgeStyle;rounded=0;orthogonalLoop=1;jettySize=auto;html=1;entryX=0.5;entryY=0;entryDx=0;entryDy=0;" edge="1" parent="WIyWlLk6GJQsqaUBKTNV-1" source="nSsZOLsbIUvvTq5Wi3pr-0" target="WIyWlLk6GJQsqaUBKTNV-3">
          <mxGeometry relative="1" as="geometry" />
        </mxCell>
        <mxCell id="nSsZOLsbIUvvTq5Wi3pr-0" value="Enter Website / Home page" style="ellipse;whiteSpace=wrap;html=1;aspect=fixed;" vertex="1" parent="WIyWlLk6GJQsqaUBKTNV-1">
          <mxGeometry x="374" y="-60" width="80" height="80" as="geometry" />
        </mxCell>
        <mxCell id="nSsZOLsbIUvvTq5Wi3pr-9" style="edgeStyle=orthogonalEdgeStyle;rounded=0;orthogonalLoop=1;jettySize=auto;html=1;entryX=0.5;entryY=0;entryDx=0;entryDy=0;" edge="1" parent="WIyWlLk6GJQsqaUBKTNV-1" source="nSsZOLsbIUvvTq5Wi3pr-2" target="nSsZOLsbIUvvTq5Wi3pr-6">
          <mxGeometry relative="1" as="geometry">
            <Array as="points">
              <mxPoint x="410" y="180" />
            </Array>
          </mxGeometry>
        </mxCell>
        <mxCell id="nSsZOLsbIUvvTq5Wi3pr-2" value="Search product" style="whiteSpace=wrap;html=1;rounded=1;glass=0;strokeWidth=1;shadow=0;" vertex="1" parent="WIyWlLk6GJQsqaUBKTNV-1">
          <mxGeometry x="640" y="150" width="120" height="60" as="geometry" />
        </mxCell>
        <mxCell id="nSsZOLsbIUvvTq5Wi3pr-7" value="" style="edgeStyle=orthogonalEdgeStyle;rounded=0;orthogonalLoop=1;jettySize=auto;html=1;entryX=0.5;entryY=0;entryDx=0;entryDy=0;" edge="1" parent="WIyWlLk6GJQsqaUBKTNV-1" source="nSsZOLsbIUvvTq5Wi3pr-4" target="nSsZOLsbIUvvTq5Wi3pr-6">
          <mxGeometry relative="1" as="geometry">
            <Array as="points">
              <mxPoint x="410" y="180" />
            </Array>
          </mxGeometry>
        </mxCell>
        <mxCell id="nSsZOLsbIUvvTq5Wi3pr-4" value="Categories" style="whiteSpace=wrap;html=1;rounded=1;glass=0;strokeWidth=1;shadow=0;" vertex="1" parent="WIyWlLk6GJQsqaUBKTNV-1">
          <mxGeometry x="70" y="150" width="120" height="60" as="geometry" />
        </mxCell>
        <mxCell id="nSsZOLsbIUvvTq5Wi3pr-11" value="" style="edgeStyle=orthogonalEdgeStyle;rounded=0;orthogonalLoop=1;jettySize=auto;html=1;" edge="1" parent="WIyWlLk6GJQsqaUBKTNV-1" source="nSsZOLsbIUvvTq5Wi3pr-6" target="nSsZOLsbIUvvTq5Wi3pr-10">
          <mxGeometry relative="1" as="geometry" />
        </mxCell>
        <mxCell id="nSsZOLsbIUvvTq5Wi3pr-24" value="" style="edgeStyle=orthogonalEdgeStyle;rounded=0;orthogonalLoop=1;jettySize=auto;html=1;entryX=0.5;entryY=0;entryDx=0;entryDy=0;" edge="1" parent="WIyWlLk6GJQsqaUBKTNV-1" source="nSsZOLsbIUvvTq5Wi3pr-6" target="nSsZOLsbIUvvTq5Wi3pr-13">
          <mxGeometry relative="1" as="geometry">
            <mxPoint x="410" y="410" as="targetPoint" />
          </mxGeometry>
        </mxCell>
        <mxCell id="nSsZOLsbIUvvTq5Wi3pr-6" value="Product" style="whiteSpace=wrap;html=1;rounded=1;glass=0;strokeWidth=1;shadow=0;" vertex="1" parent="WIyWlLk6GJQsqaUBKTNV-1">
          <mxGeometry x="350" y="300" width="120" height="60" as="geometry" />
        </mxCell>
        <mxCell id="nSsZOLsbIUvvTq5Wi3pr-20" value="" style="edgeStyle=orthogonalEdgeStyle;rounded=0;orthogonalLoop=1;jettySize=auto;html=1;" edge="1" parent="WIyWlLk6GJQsqaUBKTNV-1" source="nSsZOLsbIUvvTq5Wi3pr-10" target="nSsZOLsbIUvvTq5Wi3pr-19">
          <mxGeometry relative="1" as="geometry" />
        </mxCell>
        <mxCell id="nSsZOLsbIUvvTq5Wi3pr-21" value="yes" style="edgeLabel;html=1;align=center;verticalAlign=middle;resizable=0;points=[];" vertex="1" connectable="0" parent="nSsZOLsbIUvvTq5Wi3pr-20">
          <mxGeometry x="0.2045" y="-2" relative="1" as="geometry">
            <mxPoint as="offset" />
          </mxGeometry>
        </mxCell>
        <mxCell id="nSsZOLsbIUvvTq5Wi3pr-10" value="Add to wishlist ?" style="rhombus;whiteSpace=wrap;html=1;rounded=1;glass=0;strokeWidth=1;shadow=0;" vertex="1" parent="WIyWlLk6GJQsqaUBKTNV-1">
          <mxGeometry x="62" y="270" width="136" height="120" as="geometry" />
        </mxCell>
        <mxCell id="nSsZOLsbIUvvTq5Wi3pr-63" value="" style="edgeStyle=orthogonalEdgeStyle;rounded=0;orthogonalLoop=1;jettySize=auto;html=1;" edge="1" parent="WIyWlLk6GJQsqaUBKTNV-1" source="nSsZOLsbIUvvTq5Wi3pr-13" target="nSsZOLsbIUvvTq5Wi3pr-62">
          <mxGeometry relative="1" as="geometry" />
        </mxCell>
        <mxCell id="nSsZOLsbIUvvTq5Wi3pr-13" value="Add To cart" style="whiteSpace=wrap;html=1;rounded=1;glass=0;strokeWidth=1;shadow=0;" vertex="1" parent="WIyWlLk6GJQsqaUBKTNV-1">
          <mxGeometry x="350" y="570" width="120" height="60" as="geometry" />
        </mxCell>
        <mxCell id="nSsZOLsbIUvvTq5Wi3pr-32" style="edgeStyle=orthogonalEdgeStyle;rounded=0;orthogonalLoop=1;jettySize=auto;html=1;" edge="1" parent="WIyWlLk6GJQsqaUBKTNV-1" source="nSsZOLsbIUvvTq5Wi3pr-15" target="nSsZOLsbIUvvTq5Wi3pr-6">
          <mxGeometry relative="1" as="geometry">
            <Array as="points">
              <mxPoint x="290" y="800" />
              <mxPoint x="290" y="330" />
            </Array>
          </mxGeometry>
        </mxCell>
        <mxCell id="nSsZOLsbIUvvTq5Wi3pr-33" value="no" style="edgeLabel;html=1;align=center;verticalAlign=middle;resizable=0;points=[];" vertex="1" connectable="0" parent="nSsZOLsbIUvvTq5Wi3pr-32">
          <mxGeometry x="0.0133" y="-2" relative="1" as="geometry">
            <mxPoint as="offset" />
          </mxGeometry>
        </mxCell>
        <mxCell id="nSsZOLsbIUvvTq5Wi3pr-35" value="" style="edgeStyle=orthogonalEdgeStyle;rounded=0;orthogonalLoop=1;jettySize=auto;html=1;" edge="1" parent="WIyWlLk6GJQsqaUBKTNV-1" source="nSsZOLsbIUvvTq5Wi3pr-15" target="nSsZOLsbIUvvTq5Wi3pr-34">
          <mxGeometry relative="1" as="geometry" />
        </mxCell>
        <mxCell id="nSsZOLsbIUvvTq5Wi3pr-36" value="" style="edgeStyle=orthogonalEdgeStyle;rounded=0;orthogonalLoop=1;jettySize=auto;html=1;" edge="1" parent="WIyWlLk6GJQsqaUBKTNV-1" source="nSsZOLsbIUvvTq5Wi3pr-15" target="nSsZOLsbIUvvTq5Wi3pr-34">
          <mxGeometry relative="1" as="geometry" />
        </mxCell>
        <mxCell id="nSsZOLsbIUvvTq5Wi3pr-37" value="yes" style="edgeLabel;html=1;align=center;verticalAlign=middle;resizable=0;points=[];" vertex="1" connectable="0" parent="nSsZOLsbIUvvTq5Wi3pr-36">
          <mxGeometry x="0.0824" relative="1" as="geometry">
            <mxPoint as="offset" />
          </mxGeometry>
        </mxCell>
        <mxCell id="nSsZOLsbIUvvTq5Wi3pr-15" value="Confirm checkout ?" style="rhombus;whiteSpace=wrap;html=1;rounded=1;glass=0;strokeWidth=1;shadow=0;" vertex="1" parent="WIyWlLk6GJQsqaUBKTNV-1">
          <mxGeometry x="340" y="740" width="130" height="120" as="geometry" />
        </mxCell>
        <mxCell id="nSsZOLsbIUvvTq5Wi3pr-22" style="edgeStyle=orthogonalEdgeStyle;rounded=0;orthogonalLoop=1;jettySize=auto;html=1;" edge="1" parent="WIyWlLk6GJQsqaUBKTNV-1" source="nSsZOLsbIUvvTq5Wi3pr-19" target="nSsZOLsbIUvvTq5Wi3pr-4">
          <mxGeometry relative="1" as="geometry">
            <Array as="points">
              <mxPoint x="-86" y="180" />
            </Array>
          </mxGeometry>
        </mxCell>
        <mxCell id="nSsZOLsbIUvvTq5Wi3pr-19" value="Save to Wishlist" style="whiteSpace=wrap;html=1;rounded=1;glass=0;strokeWidth=1;shadow=0;" vertex="1" parent="WIyWlLk6GJQsqaUBKTNV-1">
          <mxGeometry x="-146" y="300" width="120" height="60" as="geometry" />
        </mxCell>
        <mxCell id="nSsZOLsbIUvvTq5Wi3pr-84" style="edgeStyle=orthogonalEdgeStyle;rounded=0;orthogonalLoop=1;jettySize=auto;html=1;" edge="1" parent="WIyWlLk6GJQsqaUBKTNV-1" source="nSsZOLsbIUvvTq5Wi3pr-29" target="nSsZOLsbIUvvTq5Wi3pr-81">
          <mxGeometry relative="1" as="geometry">
            <Array as="points">
              <mxPoint x="850" y="660" />
              <mxPoint x="650" y="660" />
            </Array>
          </mxGeometry>
        </mxCell>
        <mxCell id="nSsZOLsbIUvvTq5Wi3pr-29" value="Save to Cart" style="whiteSpace=wrap;html=1;rounded=1;glass=0;strokeWidth=1;shadow=0;" vertex="1" parent="WIyWlLk6GJQsqaUBKTNV-1">
          <mxGeometry x="790" y="570" width="120" height="60" as="geometry" />
        </mxCell>
        <mxCell id="nSsZOLsbIUvvTq5Wi3pr-41" value="" style="edgeStyle=orthogonalEdgeStyle;rounded=0;orthogonalLoop=1;jettySize=auto;html=1;entryX=0;entryY=0.5;entryDx=0;entryDy=0;" edge="1" parent="WIyWlLk6GJQsqaUBKTNV-1" source="nSsZOLsbIUvvTq5Wi3pr-34" target="nSsZOLsbIUvvTq5Wi3pr-38">
          <mxGeometry relative="1" as="geometry">
            <mxPoint x="755" y="800" as="targetPoint" />
          </mxGeometry>
        </mxCell>
        <mxCell id="nSsZOLsbIUvvTq5Wi3pr-34" value="Create Order, OrderItem" style="whiteSpace=wrap;html=1;rounded=1;glass=0;strokeWidth=1;shadow=0;" vertex="1" parent="WIyWlLk6GJQsqaUBKTNV-1">
          <mxGeometry x="555" y="770" width="120" height="60" as="geometry" />
        </mxCell>
        <mxCell id="nSsZOLsbIUvvTq5Wi3pr-46" value="" style="edgeStyle=orthogonalEdgeStyle;rounded=0;orthogonalLoop=1;jettySize=auto;html=1;" edge="1" parent="WIyWlLk6GJQsqaUBKTNV-1" source="nSsZOLsbIUvvTq5Wi3pr-38" target="nSsZOLsbIUvvTq5Wi3pr-45">
          <mxGeometry relative="1" as="geometry" />
        </mxCell>
        <mxCell id="nSsZOLsbIUvvTq5Wi3pr-47" value="yes" style="edgeLabel;html=1;align=center;verticalAlign=middle;resizable=0;points=[];" vertex="1" connectable="0" parent="nSsZOLsbIUvvTq5Wi3pr-46">
          <mxGeometry x="-0.3" y="-5" relative="1" as="geometry">
            <mxPoint as="offset" />
          </mxGeometry>
        </mxCell>
        <mxCell id="nSsZOLsbIUvvTq5Wi3pr-82" style="edgeStyle=orthogonalEdgeStyle;rounded=0;orthogonalLoop=1;jettySize=auto;html=1;" edge="1" parent="WIyWlLk6GJQsqaUBKTNV-1" source="nSsZOLsbIUvvTq5Wi3pr-38" target="nSsZOLsbIUvvTq5Wi3pr-81">
          <mxGeometry relative="1" as="geometry">
            <Array as="points">
              <mxPoint x="890" y="710" />
            </Array>
          </mxGeometry>
        </mxCell>
        <mxCell id="nSsZOLsbIUvvTq5Wi3pr-85" value="no" style="edgeLabel;html=1;align=center;verticalAlign=middle;resizable=0;points=[];" vertex="1" connectable="0" parent="nSsZOLsbIUvvTq5Wi3pr-82">
          <mxGeometry x="-0.263" relative="1" as="geometry">
            <mxPoint as="offset" />
          </mxGeometry>
        </mxCell>
        <mxCell id="nSsZOLsbIUvvTq5Wi3pr-38" value="Place this order ?" style="rhombus;whiteSpace=wrap;html=1;rounded=1;glass=0;strokeWidth=1;shadow=0;" vertex="1" parent="WIyWlLk6GJQsqaUBKTNV-1">
          <mxGeometry x="850" y="760" width="80" height="80" as="geometry" />
        </mxCell>
        <mxCell id="nSsZOLsbIUvvTq5Wi3pr-77" style="edgeStyle=orthogonalEdgeStyle;rounded=0;orthogonalLoop=1;jettySize=auto;html=1;" edge="1" parent="WIyWlLk6GJQsqaUBKTNV-1" source="nSsZOLsbIUvvTq5Wi3pr-45" target="nSsZOLsbIUvvTq5Wi3pr-76">
          <mxGeometry relative="1" as="geometry">
            <Array as="points">
              <mxPoint x="1120" y="665" />
            </Array>
          </mxGeometry>
        </mxCell>
        <mxCell id="nSsZOLsbIUvvTq5Wi3pr-45" value="Delete &lt;b&gt;Cart&lt;/b&gt;,&lt;div&gt;Create &lt;b&gt;Payment&lt;/b&gt; linked to &lt;b&gt;Order&lt;/b&gt;&lt;/div&gt;" style="whiteSpace=wrap;html=1;rounded=1;glass=0;strokeWidth=1;shadow=0;" vertex="1" parent="WIyWlLk6GJQsqaUBKTNV-1">
          <mxGeometry x="1065" y="770" width="120" height="60" as="geometry" />
        </mxCell>
        <mxCell id="nSsZOLsbIUvvTq5Wi3pr-53" value="" style="edgeStyle=orthogonalEdgeStyle;rounded=0;orthogonalLoop=1;jettySize=auto;html=1;" edge="1" parent="WIyWlLk6GJQsqaUBKTNV-1" source="nSsZOLsbIUvvTq5Wi3pr-50" target="nSsZOLsbIUvvTq5Wi3pr-52">
          <mxGeometry relative="1" as="geometry" />
        </mxCell>
        <mxCell id="nSsZOLsbIUvvTq5Wi3pr-54" value="Online Payment" style="edgeLabel;html=1;align=center;verticalAlign=middle;resizable=0;points=[];" vertex="1" connectable="0" parent="nSsZOLsbIUvvTq5Wi3pr-53">
          <mxGeometry x="-0.2963" relative="1" as="geometry">
            <mxPoint as="offset" />
          </mxGeometry>
        </mxCell>
        <mxCell id="nSsZOLsbIUvvTq5Wi3pr-56" value="Cash on delivery" style="edgeStyle=orthogonalEdgeStyle;rounded=0;orthogonalLoop=1;jettySize=auto;html=1;" edge="1" parent="WIyWlLk6GJQsqaUBKTNV-1" source="nSsZOLsbIUvvTq5Wi3pr-50" target="nSsZOLsbIUvvTq5Wi3pr-55">
          <mxGeometry relative="1" as="geometry" />
        </mxCell>
        <mxCell id="nSsZOLsbIUvvTq5Wi3pr-50" value="Payment method" style="rhombus;whiteSpace=wrap;html=1;rounded=1;glass=0;strokeWidth=1;shadow=0;" vertex="1" parent="WIyWlLk6GJQsqaUBKTNV-1">
          <mxGeometry x="1285" y="760" width="80" height="80" as="geometry" />
        </mxCell>
        <mxCell id="nSsZOLsbIUvvTq5Wi3pr-57" style="edgeStyle=orthogonalEdgeStyle;rounded=0;orthogonalLoop=1;jettySize=auto;html=1;entryX=0.5;entryY=1;entryDx=0;entryDy=0;" edge="1" parent="WIyWlLk6GJQsqaUBKTNV-1" source="nSsZOLsbIUvvTq5Wi3pr-52" target="nSsZOLsbIUvvTq5Wi3pr-55">
          <mxGeometry relative="1" as="geometry">
            <Array as="points">
              <mxPoint x="1535" y="960" />
            </Array>
          </mxGeometry>
        </mxCell>
        <mxCell id="nSsZOLsbIUvvTq5Wi3pr-52" value="Payment gateway" style="whiteSpace=wrap;html=1;rounded=1;glass=0;strokeWidth=1;shadow=0;" vertex="1" parent="WIyWlLk6GJQsqaUBKTNV-1">
          <mxGeometry x="1265" y="930" width="120" height="60" as="geometry" />
        </mxCell>
        <mxCell id="nSsZOLsbIUvvTq5Wi3pr-69" value="" style="edgeStyle=orthogonalEdgeStyle;rounded=0;orthogonalLoop=1;jettySize=auto;html=1;" edge="1" parent="WIyWlLk6GJQsqaUBKTNV-1" source="nSsZOLsbIUvvTq5Wi3pr-55" target="nSsZOLsbIUvvTq5Wi3pr-68">
          <mxGeometry relative="1" as="geometry" />
        </mxCell>
        <mxCell id="nSsZOLsbIUvvTq5Wi3pr-55" value="Order confirmation" style="whiteSpace=wrap;html=1;rounded=1;glass=0;strokeWidth=1;shadow=0;" vertex="1" parent="WIyWlLk6GJQsqaUBKTNV-1">
          <mxGeometry x="1475" y="770" width="120" height="60" as="geometry" />
        </mxCell>
        <mxCell id="nSsZOLsbIUvvTq5Wi3pr-60" style="edgeStyle=orthogonalEdgeStyle;rounded=0;orthogonalLoop=1;jettySize=auto;html=1;" edge="1" parent="WIyWlLk6GJQsqaUBKTNV-1" source="nSsZOLsbIUvvTq5Wi3pr-58" target="nSsZOLsbIUvvTq5Wi3pr-0">
          <mxGeometry relative="1" as="geometry">
            <Array as="points">
              <mxPoint x="1540" y="-20" />
            </Array>
          </mxGeometry>
        </mxCell>
        <mxCell id="nSsZOLsbIUvvTq5Wi3pr-61" value="Redirect to home page" style="edgeLabel;html=1;align=center;verticalAlign=middle;resizable=0;points=[];" vertex="1" connectable="0" parent="nSsZOLsbIUvvTq5Wi3pr-60">
          <mxGeometry x="0.1857" y="3" relative="1" as="geometry">
            <mxPoint as="offset" />
          </mxGeometry>
        </mxCell>
        <mxCell id="nSsZOLsbIUvvTq5Wi3pr-58" value="Order tracking" style="whiteSpace=wrap;html=1;rounded=1;glass=0;strokeWidth=1;shadow=0;" vertex="1" parent="WIyWlLk6GJQsqaUBKTNV-1">
          <mxGeometry x="1475" y="220" width="120" height="60" as="geometry" />
        </mxCell>
        <mxCell id="nSsZOLsbIUvvTq5Wi3pr-64" value="yes" style="edgeStyle=orthogonalEdgeStyle;rounded=0;orthogonalLoop=1;jettySize=auto;html=1;" edge="1" parent="WIyWlLk6GJQsqaUBKTNV-1" source="nSsZOLsbIUvvTq5Wi3pr-62" target="nSsZOLsbIUvvTq5Wi3pr-29">
          <mxGeometry relative="1" as="geometry" />
        </mxCell>
        <mxCell id="nSsZOLsbIUvvTq5Wi3pr-65" style="edgeStyle=orthogonalEdgeStyle;rounded=0;orthogonalLoop=1;jettySize=auto;html=1;" edge="1" parent="WIyWlLk6GJQsqaUBKTNV-1" source="nSsZOLsbIUvvTq5Wi3pr-62" target="nSsZOLsbIUvvTq5Wi3pr-6">
          <mxGeometry relative="1" as="geometry">
            <Array as="points">
              <mxPoint x="645" y="330" />
            </Array>
          </mxGeometry>
        </mxCell>
        <mxCell id="nSsZOLsbIUvvTq5Wi3pr-66" value="no" style="edgeLabel;html=1;align=center;verticalAlign=middle;resizable=0;points=[];" vertex="1" connectable="0" parent="nSsZOLsbIUvvTq5Wi3pr-65">
          <mxGeometry x="-0.48" relative="1" as="geometry">
            <mxPoint as="offset" />
          </mxGeometry>
        </mxCell>
        <mxCell id="nSsZOLsbIUvvTq5Wi3pr-62" value="Stock is availability ?&amp;nbsp;" style="rhombus;whiteSpace=wrap;html=1;rounded=1;glass=0;strokeWidth=1;shadow=0;" vertex="1" parent="WIyWlLk6GJQsqaUBKTNV-1">
          <mxGeometry x="580" y="555" width="130" height="90" as="geometry" />
        </mxCell>
        <mxCell id="nSsZOLsbIUvvTq5Wi3pr-73" value="" style="edgeStyle=orthogonalEdgeStyle;rounded=0;orthogonalLoop=1;jettySize=auto;html=1;" edge="1" parent="WIyWlLk6GJQsqaUBKTNV-1" source="nSsZOLsbIUvvTq5Wi3pr-68" target="nSsZOLsbIUvvTq5Wi3pr-72">
          <mxGeometry relative="1" as="geometry" />
        </mxCell>
        <mxCell id="nSsZOLsbIUvvTq5Wi3pr-75" value="yes" style="edgeLabel;html=1;align=center;verticalAlign=middle;resizable=0;points=[];" vertex="1" connectable="0" parent="nSsZOLsbIUvvTq5Wi3pr-73">
          <mxGeometry x="0.108" relative="1" as="geometry">
            <mxPoint as="offset" />
          </mxGeometry>
        </mxCell>
        <mxCell id="nSsZOLsbIUvvTq5Wi3pr-79" style="edgeStyle=orthogonalEdgeStyle;rounded=0;orthogonalLoop=1;jettySize=auto;html=1;entryX=1;entryY=0.5;entryDx=0;entryDy=0;" edge="1" parent="WIyWlLk6GJQsqaUBKTNV-1" source="nSsZOLsbIUvvTq5Wi3pr-68" target="nSsZOLsbIUvvTq5Wi3pr-76">
          <mxGeometry relative="1" as="geometry" />
        </mxCell>
        <mxCell id="nSsZOLsbIUvvTq5Wi3pr-80" value="no" style="edgeLabel;html=1;align=center;verticalAlign=middle;resizable=0;points=[];" vertex="1" connectable="0" parent="nSsZOLsbIUvvTq5Wi3pr-79">
          <mxGeometry x="-0.1088" y="2" relative="1" as="geometry">
            <mxPoint as="offset" />
          </mxGeometry>
        </mxCell>
        <mxCell id="nSsZOLsbIUvvTq5Wi3pr-68" value="Successful order ?" style="rhombus;whiteSpace=wrap;html=1;rounded=1;glass=0;strokeWidth=1;shadow=0;" vertex="1" parent="WIyWlLk6GJQsqaUBKTNV-1">
          <mxGeometry x="1472.5" y="610" width="125" height="110" as="geometry" />
        </mxCell>
        <mxCell id="nSsZOLsbIUvvTq5Wi3pr-74" style="edgeStyle=orthogonalEdgeStyle;rounded=0;orthogonalLoop=1;jettySize=auto;html=1;entryX=0.5;entryY=1;entryDx=0;entryDy=0;" edge="1" parent="WIyWlLk6GJQsqaUBKTNV-1" source="nSsZOLsbIUvvTq5Wi3pr-72" target="nSsZOLsbIUvvTq5Wi3pr-58">
          <mxGeometry relative="1" as="geometry" />
        </mxCell>
        <mxCell id="nSsZOLsbIUvvTq5Wi3pr-72" value="Update stock of product" style="whiteSpace=wrap;html=1;rounded=1;glass=0;strokeWidth=1;shadow=0;" vertex="1" parent="WIyWlLk6GJQsqaUBKTNV-1">
          <mxGeometry x="1475" y="495" width="120" height="60" as="geometry" />
        </mxCell>
        <mxCell id="nSsZOLsbIUvvTq5Wi3pr-78" style="edgeStyle=orthogonalEdgeStyle;rounded=0;orthogonalLoop=1;jettySize=auto;html=1;" edge="1" parent="WIyWlLk6GJQsqaUBKTNV-1" source="nSsZOLsbIUvvTq5Wi3pr-76" target="nSsZOLsbIUvvTq5Wi3pr-50">
          <mxGeometry relative="1" as="geometry" />
        </mxCell>
        <mxCell id="nSsZOLsbIUvvTq5Wi3pr-76" value="Payment sceen" style="rounded=1;whiteSpace=wrap;html=1;" vertex="1" parent="WIyWlLk6GJQsqaUBKTNV-1">
          <mxGeometry x="1265" y="635" width="120" height="60" as="geometry" />
        </mxCell>
        <mxCell id="nSsZOLsbIUvvTq5Wi3pr-83" style="edgeStyle=orthogonalEdgeStyle;rounded=0;orthogonalLoop=1;jettySize=auto;html=1;" edge="1" parent="WIyWlLk6GJQsqaUBKTNV-1" source="nSsZOLsbIUvvTq5Wi3pr-81" target="nSsZOLsbIUvvTq5Wi3pr-15">
          <mxGeometry relative="1" as="geometry">
            <Array as="points">
              <mxPoint x="405" y="710" />
            </Array>
          </mxGeometry>
        </mxCell>
        <mxCell id="nSsZOLsbIUvvTq5Wi3pr-81" value="Shopping cart sceen" style="rounded=1;whiteSpace=wrap;html=1;" vertex="1" parent="WIyWlLk6GJQsqaUBKTNV-1">
          <mxGeometry x="590" y="680" width="120" height="60" as="geometry" />
        </mxCell>
      </root>
    </mxGraphModel>
  </diagram>
</mxfile>
